<?xml version="1.0" standalone="no"?>
<!DOCTYPE svg PUBLIC "-//W3C//DTD SVG 20010904//EN"
 "http://www.w3.org/TR/2001/REC-SVG-20010904/DTD/svg10.dtd">
<svg version="1.0" xmlns="http://www.w3.org/2000/svg"
 width="191.000000pt" height="64.000000pt" viewBox="0 0 191.000000 64.000000"
 preserveAspectRatio="xMidYMid meet">

<g transform="translate(0.000000,64.000000) scale(0.100000,-0.100000)"
fill="#000000" stroke="none">
<path d="M413 533 c-7 -2 -13 -18 -13 -34 0 -22 6 -30 25 -35 29 -7 55 10 55
35 0 33 -32 49 -67 34z"/>
<path d="M1060 340 l0 -171 48 2 c26 1 57 -1 70 -5 57 -19 140 43 149 111 12
89 -74 165 -159 142 -28 -7 -28 -7 -28 42 l0 49 -40 0 -40 0 0 -170z m174 -1
c31 -25 34 -61 6 -89 -24 -24 -48 -25 -78 -4 -36 25 -25 92 18 107 24 9 26 8
54 -14z"/>
<path d="M676 483 c13 -29 17 -209 4 -232 -13 -24 -48 -27 -76 -7 -17 13 -22
12 -41 -6 -13 -12 -23 -25 -23 -30 0 -5 21 -18 46 -29 76 -34 153 -8 171 59 5
15 8 79 8 142 l0 115 -49 3 c-44 3 -48 1 -40 -15z"/>
<path d="M495 453 c-36 -20 -158 -53 -194 -53 -14 0 -32 -4 -40 -9 -15 -9 26
-18 111 -23 l38 -3 -24 -50 c-27 -57 -81 -112 -146 -149 -39 -22 -41 -26 -20
-26 37 0 122 43 168 85 50 45 104 125 131 194 23 56 21 58 -24 34z"/>
<path d="M882 419 c-94 -20 -129 -133 -65 -209 75 -90 223 -36 223 82 0 89
-71 146 -158 127z m66 -75 c44 -30 18 -114 -36 -114 -18 0 -62 46 -62 65 0 19
44 65 62 65 8 0 24 -7 36 -16z"/>
<path d="M1320 415 c0 -2 20 -56 45 -118 53 -135 55 -151 19 -144 -20 3 -28
-1 -36 -19 -14 -30 -9 -34 39 -41 59 -8 76 13 138 175 30 79 55 145 55 148 0
3 -17 4 -37 2 -36 -3 -37 -5 -64 -78 l-27 -75 -15 35 c-8 19 -21 54 -28 78
-12 40 -14 42 -51 42 -21 0 -38 -2 -38 -5z"/>
<path d="M1602 395 c-7 -14 -12 -28 -12 -30 0 -3 28 -5 61 -5 l61 0 -66 -74
c-37 -41 -66 -83 -66 -95 0 -20 5 -21 116 -21 l115 0 -3 28 c-3 26 -6 27 -66
30 l-63 3 66 72 c40 44 65 80 65 94 0 22 -3 23 -98 23 -96 0 -99 -1 -110 -25z"/>
<path d="M293 264 c-29 -14 -81 -29 -115 -33 l-63 -8 39 -8 c57 -12 137 9 171
45 16 17 27 30 24 29 -2 0 -28 -12 -56 -25z"/>
</g>
</svg>
