<?xml version="1.0" standalone="no"?>
<!DOCTYPE svg PUBLIC "-//W3C//DTD SVG 20010904//EN"
 "http://www.w3.org/TR/2001/REC-SVG-20010904/DTD/svg10.dtd">
<svg version="1.0" xmlns="http://www.w3.org/2000/svg"
 width="3000.000000pt" height="3000.000000pt" viewBox="0 0 3000.000000 3000.000000"
 preserveAspectRatio="xMidYMid meet">

<g transform="translate(0.000000,3000.000000) scale(0.100000,-0.100000)"
fill="#000000" stroke="none">
<path d="M19280 23313 c-90 -10 -286 -56 -381 -88 -702 -244 -1177 -856 -1241
-1601 -27 -316 41 -666 188 -958 257 -513 712 -861 1283 -983 116 -25 145 -27
361 -28 207 0 249 3 349 23 450 91 838 331 1113 686 168 218 285 473 344 750
35 166 45 468 19 631 -63 411 -239 760 -527 1046 -281 279 -642 457 -1041 514
-94 13 -376 18 -467 8z"/>
<path d="M23900 20731 c-513 -351 -974 -621 -1590 -929 -1935 -970 -4384
-1716 -7352 -2242 -1311 -232 -2942 -437 -4093 -515 -132 -9 -260 -18 -285
-22 l-45 -5 95 -45 c1202 -565 2708 -927 4460 -1073 698 -57 1450 -79 2117
-62 252 7 553 19 668 27 116 8 217 15 226 15 14 0 9 -27 -31 -172 -375 -1348
-985 -2618 -1819 -3787 -1070 -1499 -2559 -2862 -4336 -3968 -1287 -801 -2852
-1528 -4125 -1917 l-115 -35 115 0 c383 -2 1089 41 1560 95 3868 438 7251
2377 10031 5749 1540 1867 2885 4188 3900 6728 279 698 565 1520 738 2122 22
76 39 140 38 141 -1 1 -72 -46 -157 -105z"/>
<path d="M15925 12933 c-467 -295 -1034 -607 -1648 -908 -2090 -1023 -4247
-1651 -6217 -1809 -398 -32 -592 -40 -1035 -39 -568 0 -925 21 -1424 84 -129
16 -239 29 -244 29 -19 0 18 -31 116 -98 150 -102 239 -153 414 -241 1022
-511 2398 -722 3963 -606 964 72 2035 273 3125 587 237 68 212 54 565 311 532
388 1017 796 1428 1202 499 491 804 879 1007 1280 61 120 141 314 133 320 -2
1 -84 -49 -183 -112z"/>
</g>
</svg>
